<?xml version="1.0" standalone="no"?><!DOCTYPE svg PUBLIC "-//W3C//DTD SVG 1.1//EN" "http://www.w3.org/Graphics/SVG/1.1/DTD/svg11.dtd"><svg t="1546829004116" class="icon" style="" viewBox="0 0 1024 1024" version="1.1" xmlns="http://www.w3.org/2000/svg" p-id="6910" xmlns:xlink="http://www.w3.org/1999/xlink" width="128" height="128"><defs><style type="text/css"></style></defs><path d="M512 0c282.729292 0 512 229.288762 512 512.018054 0 282.711238-229.270708 511.981946-512 511.981946C229.288762 1024.018054 0 794.747347 0 512.018054 0 229.288762 229.288762 0 512 0L512 0zM748.041045 760.931768 748.041045 230.426179l-83.879968-73.10159-279.154554 104.31736 0 26.088367 253.517543-85.450686 0 596.927113 168.770972 0 0-38.274974L748.041045 760.931768 748.041045 760.931768zM294.157622 597.504849l132.933319-26.593886 0-67.450615-132.933319 34.952996L294.157622 597.504849 294.157622 597.504849zM294.157622 800.109454l132.933319 0 0-70.772594-132.933319 9.640961L294.157622 800.109454 294.157622 800.109454zM294.157622 698.482175l132.933319-12.83656 0-67.34229-132.933319 22.351141L294.157622 698.482175 294.157622 698.482175zM294.157622 494.577665l132.933319-36.577877 0-70.068479-132.933319 44.973095L294.157622 494.577665 294.157622 494.577665zM574.539864 320.372369l-75.069502-45.604993-282.602913 101.898092-0.144434 424.87027 37.227829 0L253.950845 397.211185l211.45118-69.635178 0 471.811277 109.155894 0L574.539864 320.372369 574.539864 320.372369z" p-id="6911" fill="#1296db"></path></svg>